# xmcd CD database file
#
# Track frame offsets:
#	150
#	15627
#	29560
#	44436
#	58184
#	70758
#	86172
#	100015
#	114604
#	129921
#	141845
#	151533
#	161256
#	171671
#	184214
#	196433
#	210745
#	222391
#
# Disc length: 3118 seconds
#
# Revision: 0
# Processed by: cddbd v1.5PL3 Copyright (c) Steve Scherf et al.
# Submitted via: CDex 1.51
#
DISCID=040c2c12
DTITLE=Muddy Waters - Country Blues
DYEAR=1900
DGENRE=Blues
TTITLE0=Country Blues
TTITLE1=I Be's Troubled
TTITLE2=Ramblin' Kid Blues
TTITLE3=Rosalie
TTITLE4=Joe Turner
TTITLE5=Pearlie May Blues
TTITLE6=Take a Walk With Me
TTITLE7=Burr Clover Blues
TTITLE8=I Be Bound to Write You
TTITLE9=You're Gonna Miss Me When I'm Gone
TTITLE10=You Got to Take Sick and Die Some of These Days
TTITLE11=Why Don't You Live so God Can Use You
TTITLE12=Mean Red Spider
TTITLE13=She Ain't Nowhere
TTITLE14=I Can't Be Satisfied
TTITLE15=I Feel Like Going Home
TTITLE16=Gypsy Woman
TTITLE17=Little Annie Mae
EXTD=
EXTT0=
EXTT1=
EXTT2=
EXTT3=
EXTT4=
EXTT5=
EXTT6=
EXTT7=
EXTT8=
EXTT9=
EXTT10=
EXTT11=
EXTT12=
EXTT13=
EXTT14=
EXTT15=
EXTT16=
EXTT17=
PLAYORDER=
